<svg width="31" height="24" viewBox="0 0 31 24" fill="none" xmlns="http://www.w3.org/2000/svg">
<g id="Icons/Folder">
<path id="Path" d="M26.6955 11.2712V9C26.6955 7.89543 25.5572 7 24.1531 7H15.9792C15.5584 7 15.1649 6.8362 14.9282 6.56252L13.0902 4.43752C12.8535 4.16382 12.4599 4 12.0391 4H6.35609C4.95194 4 3.81366 4.89543 3.81366 6V18.4169C3.81366 19.2912 4.71466 20 5.82609 20V20C6.85152 20 7.71297 19.3935 7.82621 18.5918L8.64722 12.7791C8.79029 11.7663 9.87861 11 11.1741 11H25.424C26.1472 11 26.8361 11.2423 27.3184 11.6662C27.8007 12.09 28.0307 12.6555 27.9509 13.2209L27.2446 18.2209C27.1016 19.2337 26.0133 20 24.7178 20H5.82609" stroke="#323234" stroke-width="1.5" stroke-linecap="round" stroke-linejoin="round"/>
</g>
</svg>
