<svg width="165" height="25" viewBox="0 0 165 25" fill="none" xmlns="http://www.w3.org/2000/svg">
<g id="Property 1=Variant2">
<path id="Shape" fill-rule="evenodd" clip-rule="evenodd" d="M0 0H4V19.5H0V0ZM79 2V5.5H81.5L82 9.5H79V14C79 14.8284 79.6716 15.5 80.5 15.5H82.5V19.5H80.5H80C77.2854 19.5 75.076 17.3367 75.0019 14.64L75 14.5V9.5H73V5.5H75V2H79ZM56 5.5L56.0002 6.17356C56.9094 5.74166 57.9265 5.5 59 5.5C62.866 5.5 66 8.63401 66 12.5C66 16.366 62.866 19.5 59 19.5C57.9265 19.5 56.9094 19.2583 56.0002 18.8264L56 25H52V5.5H56ZM56 12.5C56 10.8431 57.3431 9.5 59 9.5C60.6569 9.5 62 10.8431 62 12.5C62 14.1569 60.6569 15.5 59 15.5C57.3431 15.5 56 14.1569 56 12.5ZM83 5.5H87.3143L90.0571 14.1571L92.8 5.5H97.1143L92.1429 19.5H87.9714L83 5.5ZM35 12.5C35 8.63401 31.866 5.5 28 5.5H12.5C8.63401 5.5 5.5 8.63401 5.5 12.5C5.5 16.366 8.63401 19.5 12.5 19.5H28C31.866 19.5 35 16.366 35 12.5ZM28 9.5H12.5C10.8431 9.5 9.5 10.8431 9.5 12.5C9.5 14.1569 10.8431 15.5 12.5 15.5H28C29.6569 15.5 31 14.1569 31 12.5C31 10.8431 29.6569 9.5 28 9.5ZM50.5 12.5C50.5 8.63401 47.366 5.5 43.5 5.5C39.634 5.5 36.5 8.63401 36.5 12.5C36.5 16.366 39.634 19.5 43.5 19.5C47.366 19.5 50.5 16.366 50.5 12.5ZM43.5 9.5C41.8431 9.5 40.5 10.8431 40.5 12.5C40.5 14.1569 41.8431 15.5 43.5 15.5C45.1569 15.5 46.5 14.1569 46.5 12.5C46.5 10.8431 45.1569 9.5 43.5 9.5ZM72.5 17.25C72.5 18.4926 71.4926 19.5 70.25 19.5C69.0074 19.5 68 18.4926 68 17.25C68 16.0074 69.0074 15 70.25 15C71.4926 15 72.5 16.0074 72.5 17.25ZM101.118 6.02763H100.344V8.19979H99.7741V6.02763H99V5.5H101.118V6.02763ZM101.319 8.19979H101.893V6.66696L102.406 7.6529H102.914L103.43 6.66696V8.19979H104V5.5H103.43L102.66 7.01358L101.893 5.5H101.319V8.19979ZM164.4 19.5H162.945V5.5H164.4V19.5ZM158.125 10.868C157.312 9.898 156.25 9.41298 154.94 9.41298C154.035 9.41298 153.235 9.63583 152.541 10.0815C151.82 10.5272 151.256 11.1368 150.85 11.9102C150.443 12.6705 150.24 13.5225 150.24 14.4663C150.24 15.4102 150.443 16.2622 150.85 17.0225C151.256 17.7959 151.813 18.4055 152.521 18.8512C153.242 19.2838 154.048 19.5 154.94 19.5C156.263 19.5 157.325 19.0216 158.125 18.0647V19.2838H159.58V9.64894H158.125V10.868ZM152.128 16.3736C151.866 15.81 151.734 15.1742 151.734 14.4663C151.734 13.7716 151.879 13.1424 152.167 12.5787C152.442 12.015 152.822 11.5759 153.307 11.2613C153.793 10.9467 154.337 10.7894 154.94 10.7894C155.569 10.7894 156.126 10.9467 156.611 11.2613C157.109 11.589 157.489 12.0347 157.751 12.5984C158.027 13.1489 158.164 13.7716 158.164 14.4663C158.164 15.148 158.027 15.7641 157.751 16.3147C157.463 16.8783 157.07 17.324 156.572 17.6517C156.073 17.9795 155.529 18.1433 154.94 18.1433C154.31 18.1433 153.753 17.986 153.268 17.6714C152.783 17.3568 152.403 16.9242 152.128 16.3736ZM147.332 19.455C146.362 19.455 145.654 19.2298 145.209 18.7793C144.763 18.3156 144.54 17.5737 144.54 16.5536V11.0289H142.967V9.67758H144.54V6.955H145.995V9.67758H148.237V11.0289H145.995V16.335C145.995 16.9841 146.1 17.4412 146.31 17.7062C146.533 17.9712 146.919 18.1037 147.47 18.1037L148.237 18.0838V19.4153L147.332 19.455ZM141.278 10.9398C141.475 10.9398 141.586 10.9465 141.613 10.9599V9.53137C141.573 9.51796 141.429 9.51125 141.18 9.51125C140.459 9.51125 139.856 9.62527 139.371 9.8533C138.899 10.0679 138.453 10.4368 138.034 10.9599V9.65209H136.618V19.5112H138.073V15.306C138.073 14.2597 138.185 13.408 138.407 12.7507C138.617 12.1202 138.951 11.6642 139.41 11.3825C139.869 11.0874 140.492 10.9398 141.278 10.9398ZM129.04 19.5C128.148 19.5 127.335 19.2772 126.601 18.8315C125.867 18.3858 125.284 17.7763 124.851 17.0029C124.419 16.2295 124.203 15.3839 124.203 14.4663C124.203 13.5356 124.412 12.6836 124.832 11.9102C125.251 11.1368 125.835 10.5272 126.582 10.0815C127.303 9.63583 128.122 9.41298 129.04 9.41298C129.931 9.41298 130.75 9.63583 131.497 10.0815C132.258 10.5272 132.854 11.1368 133.287 11.9102C133.706 12.6836 133.916 13.5356 133.916 14.4663C133.916 15.3839 133.7 16.2229 133.267 16.9832C132.848 17.7435 132.264 18.353 131.517 18.8118C130.757 19.2706 129.931 19.5 129.04 19.5ZM129.04 18.1433C129.669 18.1433 130.239 17.986 130.75 17.6714C131.275 17.3437 131.681 16.898 131.969 16.3343C132.258 15.7969 132.402 15.1742 132.402 14.4663C132.402 13.7716 132.258 13.1424 131.969 12.5787C131.681 12.015 131.281 11.5759 130.77 11.2613C130.259 10.9467 129.682 10.7894 129.04 10.7894C128.397 10.7894 127.82 10.9467 127.309 11.2613C126.811 11.5759 126.418 12.015 126.129 12.5787C125.841 13.1424 125.697 13.7716 125.697 14.4663C125.697 15.1611 125.841 15.7903 126.129 16.354C126.418 16.9045 126.818 17.3371 127.329 17.6517C127.814 17.9795 128.384 18.1433 129.04 18.1433ZM117.798 5.5H113V19.5H114.494V14.3474H117.798C118.82 14.3474 119.712 14.1676 120.472 13.8081C121.232 13.4486 121.816 12.936 122.222 12.2703C122.628 11.6046 122.831 10.8257 122.831 9.93367C122.831 8.58892 122.373 7.51712 121.455 6.71826C120.577 5.90609 119.358 5.5 117.798 5.5ZM120.452 12.1505C119.875 12.6698 119.063 12.9294 118.014 12.9294H114.494V6.93795H118.014C119.05 6.93795 119.862 7.20423 120.452 7.7368C121.042 8.25606 121.337 8.98835 121.337 9.93367C121.337 10.8923 121.042 11.6312 120.452 12.1505Z" fill="#323234"/>
</g>
</svg>
