<svg width="18" height="18" viewBox="0 0 18 18" fill="none" xmlns="http://www.w3.org/2000/svg">
<g id="Icons/Venues">
<path id="Path" d="M2.25 15.75H15.75" stroke="#323234" stroke-linecap="round" stroke-linejoin="round"/>
<path id="Path_2" d="M2.99996 15.75L3.00004 8.21655" stroke="#4C4C70" stroke-linecap="round" stroke-linejoin="round"/>
<path id="Path_3" d="M15.0551 15.75L15.0552 8.20581" stroke="#4C4C70" stroke-linecap="round" stroke-linejoin="round"/>
<path id="Path_4" fill-rule="evenodd" clip-rule="evenodd" d="M16.2932 5.60824C16.5145 6.02509 16.5585 6.51355 16.4152 6.96325C16.1674 7.7434 15.4353 8.26707 14.6169 8.24957C13.7985 8.23207 13.0894 7.67759 12.8752 6.88756C12.8616 6.84167 12.8194 6.81019 12.7716 6.81019C12.7237 6.81019 12.6815 6.84167 12.668 6.88756C12.4491 7.69166 11.719 8.24963 10.8856 8.24954C10.0523 8.24945 9.3222 7.69132 9.10355 6.88717C9.09 6.84127 9.04784 6.80976 8.99997 6.80976C8.95211 6.80976 8.90995 6.84127 8.89639 6.88717C8.67765 7.69133 7.94748 8.24939 7.11411 8.24936C6.28074 8.24933 5.55061 7.69122 5.33192 6.88705C5.31832 6.84117 5.27617 6.8097 5.22832 6.8097C5.18048 6.8097 5.13832 6.84117 5.12473 6.88705C4.91042 7.67699 4.20142 8.23141 3.38311 8.24893C2.5648 8.26646 1.83271 7.7429 1.58479 6.96286C1.44143 6.51309 1.48543 6.02453 1.70683 5.60761L2.98687 3.07366C3.24204 2.56852 3.7598 2.25 4.32574 2.25H13.674C14.2399 2.25 14.7577 2.56852 15.0128 3.07366L16.2932 5.60824Z" stroke="#4C4C70" stroke-linecap="round" stroke-linejoin="round"/>
<path id="Path_5" d="M10.5 15.75V8.20581" stroke="#323234" stroke-width="1.5" stroke-linecap="round" stroke-linejoin="round"/>
<path id="Path_6" d="M10.5 12H3" stroke="#323234" stroke-width="1.5" stroke-linecap="round" stroke-linejoin="round"/>
</g>
</svg>
