<svg width="104" height="25" viewBox="0 0 104 25" fill="none"
  xmlns="http://www.w3.org/2000/svg">
  <g id="logo">
    <path class="path" fill-rule="evenodd" clip-rule="evenodd" d="M0 0H4V19.5H0V0ZM79 2V5.5H81.5L82 9.5H79V14C79 14.8284 79.6716 15.5 80.5 15.5V19.5H80C77.2854 19.5 75.076 17.3367 75.0019 14.64L75 14.5V9.5H73V5.5H75V2H79ZM82.5 15.5V19.5H80.5V15.5H82.5ZM56 5.5L56.0002 6.17356C56.9094 5.74166 57.9265 5.5 59 5.5C62.866 5.5 66 8.63401 66 12.5C66 16.366 62.866 19.5 59 19.5C57.9265 19.5 56.9094 19.2583 56.0002 18.8264L56 25H52V5.5H56ZM59 9.5C57.3431 9.5 56 10.8431 56 12.5C56 14.1569 57.3431 15.5 59 15.5C60.6569 15.5 62 14.1569 62 12.5C62 10.8431 60.6569 9.5 59 9.5ZM87.9714 19.5L83 5.5H87.3143L90.0571 14.1571L92.8 5.5H97.1143L92.1429 19.5H87.9714ZM28 5.5C31.866 5.5 35 8.63401 35 12.5C35 16.366 31.866 19.5 28 19.5H12.5C8.63401 19.5 5.5 16.366 5.5 12.5C5.5 8.63401 8.63401 5.5 12.5 5.5H28ZM28 9.5H12.5C10.8431 9.5 9.5 10.8431 9.5 12.5C9.5 14.1569 10.8431 15.5 12.5 15.5H28C29.6569 15.5 31 14.1569 31 12.5C31 10.8431 29.6569 9.5 28 9.5ZM43.5 5.5C47.366 5.5 50.5 8.63401 50.5 12.5C50.5 16.366 47.366 19.5 43.5 19.5C39.634 19.5 36.5 16.366 36.5 12.5C36.5 8.63401 39.634 5.5 43.5 5.5ZM43.5 9.5C41.8431 9.5 40.5 10.8431 40.5 12.5C40.5 14.1569 41.8431 15.5 43.5 15.5C45.1569 15.5 46.5 14.1569 46.5 12.5C46.5 10.8431 45.1569 9.5 43.5 9.5ZM70.25 19.5C71.4926 19.5 72.5 18.4926 72.5 17.25C72.5 16.0074 71.4926 15 70.25 15C69.0074 15 68 16.0074 68 17.25C68 18.4926 69.0074 19.5 70.25 19.5ZM101.118 6.02763H100.344V8.19979H99.7741V6.02763H99V5.5H101.118V6.02763ZM101.893 8.19979H101.319V5.5H101.893L102.66 7.01358L103.43 5.5H104V8.19979H103.43V6.66696L102.914 7.6529H102.406L101.893 6.66696V8.19979Z" fill="#323234"/>
  </g>
</svg>
