<svg width="251" height="80" viewBox="0 0 251 80" fill="none" xmlns="http://www.w3.org/2000/svg">
<g id="Group 2">
<path id="Path" fill-rule="evenodd" clip-rule="evenodd" d="M57.6847 29.0908L193.815 29.0908C218.249 29.0908 237.227 35.2322 250.75 38.7878C250.743 60.6941 250.743 67.4951 250.749 67.9182C250.868 75.9727 236.809 79.9999 208.571 79.9999H42.9293C14.6913 79.9999 0.631843 75.9727 0.750748 67.9182C0.756994 67.4951 0.756744 60.6941 0.75 38.7878C14.2727 35.2322 33.251 29.0908 57.6847 29.0908Z" fill="url(#paint0_linear_452_14654)"/>
<path id="Shape" opacity="0.958101" fill-rule="evenodd" clip-rule="evenodd" d="M250.745 52.3635C250.746 54.0143 250.747 54.7715 250.749 54.9035C250.868 62.9072 236.809 66.909 208.571 66.909H42.9293C14.6913 66.909 0.631843 62.9072 0.750748 54.9035C0.752709 54.7715 0.75403 54.0143 0.754711 52.3635C1.04873 60.1333 15.1069 64.0183 42.9293 64.0183H208.571C236.393 64.0183 250.451 60.1333 250.745 52.3635V52.3635Z" fill="#1E1E1E"/>
<path id="Path_2" fill-rule="evenodd" clip-rule="evenodd" d="M57.6851 0L193.815 0C230.465 0 235.701 6.78788 238.557 12.6061L250.456 36.8485C250.642 37.5335 250.74 38.1529 250.749 38.7879C250.867 46.8417 236.807 50.9091 208.57 50.9091H42.9297C14.6933 50.9091 0.633097 46.8417 0.750732 38.7879C0.760006 38.1529 0.750732 37.3333 2.69699 33.3257C6.05124 26.4189 12.9431 12.6061 12.9431 12.6061C15.799 6.78788 21.0347 0 57.6851 0Z" fill="url(#paint1_linear_452_14654)"/>
<path id="Logo" opacity="0.961147" fill-rule="evenodd" clip-rule="evenodd" d="M79.375 14.0605H84.7219L79.6585 29.0908H73.7462L79.375 14.0605ZM94.3531 21.3333C91.8939 21.3333 89.605 22.4186 89.2544 23.7575C88.9189 25.0964 90.7102 26.1818 93.2416 26.1818H116.346C118.877 26.1818 120.998 25.0964 121.086 23.7575C121.176 22.4186 119.257 21.3333 116.798 21.3333H94.3531ZM116.989 18.4242C122.489 18.4242 126.868 20.812 126.771 23.7575C126.675 26.703 121.83 29.0909 115.947 29.0909H92.5438C86.6612 29.0909 82.5227 26.703 83.3785 23.7575C84.321 20.812 89.6073 18.4242 95.1073 18.4242H116.989ZM128.837 23.7575C128.885 20.812 133.347 18.4242 138.807 18.4242C144.266 18.4242 149.009 20.812 149.361 23.7575C149.67 26.703 145.155 29.0909 139.316 29.0909C133.477 29.0909 128.786 26.703 128.837 23.7575ZM134.523 23.7575C134.546 25.0964 136.663 26.1818 139.254 26.1818C141.844 26.1818 143.872 25.0964 143.777 23.7575C143.675 22.4186 141.547 21.3333 139.031 21.3333C136.514 21.3333 134.497 22.4186 134.523 23.7575ZM158.228 28.7381L158.716 33.4545H152.7L151.112 18.4245H156.645L156.746 18.9659C160.644 17.8625 165.738 18.4851 169.128 20.4657C172.561 22.4464 173.249 25.2577 170.664 27.2383C167.98 29.2189 162.772 29.8415 158.228 28.7381ZM157.349 23.7575C157.54 25.0964 159.729 26.1818 162.248 26.1818C164.767 26.1818 166.609 25.0964 166.348 23.7575C166.072 22.4186 163.852 21.3333 161.405 21.3333C158.957 21.3333 157.147 22.4186 157.349 23.7575ZM173.47 18.9226H172.544L172.981 20.3636H171.974L171.546 18.9226H170.639L170.489 18.4242H173.311L173.47 18.9226ZM175.116 20.3636H174.212L173.718 18.4242H174.833L175.753 19.4654L176.111 18.4242H177.217L177.754 20.3636H176.858L176.585 19.3371L176.327 20.0774H175.508L174.854 19.3371L175.116 20.3636Z" fill="url(#paint2_linear_452_14654)"/>
</g>
<defs>
<linearGradient id="paint0_linear_452_14654" x1="0.75" y1="59.2222" x2="250.75" y2="59.2222" gradientUnits="userSpaceOnUse">
<stop stop-color="#666666"/>
<stop offset="0.0917969" stop-color="#2A2A2A"/>
<stop offset="0.501734" stop-color="#404040"/>
<stop offset="0.816459" stop-color="#3B3B3B"/>
<stop offset="0.941881" stop-color="#2A2A2A"/>
<stop offset="1" stop-color="#666666"/>
</linearGradient>
<linearGradient id="paint1_linear_452_14654" x1="0.75" y1="0" x2="0.75" y2="50.9091" gradientUnits="userSpaceOnUse">
<stop stop-color="#4C4C4C"/>
<stop offset="0.195946" stop-color="#3A3A3A"/>
<stop offset="0.631968" stop-color="#272727"/>
<stop offset="1" stop-color="#202020"/>
</linearGradient>
<linearGradient id="paint2_linear_452_14654" x1="73.7462" y1="14.0605" x2="73.7462" y2="33.4545" gradientUnits="userSpaceOnUse">
<stop stop-color="white" stop-opacity="0.792368"/>
<stop offset="1" stop-color="white"/>
</linearGradient>
</defs>
</svg>
